<svg width="216" height="31" viewBox="0 0 216 31" fill="none" xmlns="http://www.w3.org/2000/svg">
<path d="M25.358 10.3693H20.9261C20.7557 9.42235 20.4384 8.58901 19.9744 7.86932C19.5104 7.14962 18.9422 6.53883 18.2699 6.03693C17.5975 5.53504 16.8447 5.15625 16.0114 4.90057C15.1875 4.64489 14.3116 4.51705 13.3835 4.51705C11.7074 4.51705 10.2064 4.93845 8.88068 5.78125C7.56439 6.62405 6.52273 7.85985 5.75568 9.48864C4.99811 11.1174 4.61932 13.1061 4.61932 15.4545C4.61932 17.822 4.99811 19.8201 5.75568 21.4489C6.52273 23.0777 7.56913 24.3087 8.89489 25.142C10.2206 25.9754 11.7121 26.392 13.3693 26.392C14.2879 26.392 15.1591 26.2689 15.983 26.0227C16.8163 25.767 17.5691 25.393 18.2415 24.9006C18.9138 24.4081 19.482 23.8068 19.946 23.0966C20.4195 22.3769 20.7462 21.553 20.9261 20.625L25.358 20.6392C25.1212 22.0691 24.6619 23.3854 23.9801 24.5881C23.3078 25.7812 22.4413 26.8134 21.3807 27.6847C20.3295 28.5464 19.1269 29.214 17.7727 29.6875C16.4186 30.161 14.9413 30.3977 13.3409 30.3977C10.822 30.3977 8.57765 29.8011 6.60795 28.608C4.63826 27.4053 3.08523 25.6866 1.94886 23.4517C0.82197 21.2169 0.258523 18.5511 0.258523 15.4545C0.258523 12.3485 0.826705 9.68276 1.96307 7.45739C3.09943 5.22254 4.65246 3.50852 6.62216 2.31534C8.59186 1.11269 10.8314 0.511363 13.3409 0.511363C14.8845 0.511363 16.3239 0.733901 17.6591 1.17898C19.0038 1.61458 20.2112 2.25852 21.2812 3.1108C22.3513 3.9536 23.2367 4.9858 23.9375 6.20739C24.6383 7.41951 25.1117 8.80682 25.358 10.3693ZM36.6186 30.483C35.236 30.483 33.986 30.2273 32.8686 29.7159C31.7512 29.1951 30.8658 28.4422 30.2124 27.4574C29.5684 26.4725 29.2464 25.2652 29.2464 23.8352C29.2464 22.6042 29.4832 21.5909 29.9567 20.7955C30.4302 20 31.0694 19.3703 31.8743 18.9062C32.6792 18.4422 33.5788 18.0919 34.5732 17.8551C35.5675 17.6184 36.5807 17.4384 37.6129 17.3153C38.9197 17.1638 39.9804 17.0407 40.7947 16.946C41.6091 16.8419 42.201 16.6761 42.5703 16.4489C42.9396 16.2216 43.1243 15.8523 43.1243 15.3409V15.2415C43.1243 14.0009 42.7739 13.0398 42.0732 12.358C41.3819 11.6761 40.3497 11.3352 38.9766 11.3352C37.5466 11.3352 36.4197 11.6525 35.5959 12.2869C34.7815 12.9119 34.218 13.608 33.9055 14.375L29.9141 13.4659C30.3875 12.1402 31.0788 11.0701 31.9879 10.2557C32.9065 9.43182 33.9624 8.83523 35.1555 8.46591C36.3487 8.08712 37.6035 7.89773 38.9197 7.89773C39.791 7.89773 40.7143 8.00189 41.6896 8.21023C42.6745 8.40909 43.593 8.77841 44.4453 9.31818C45.3071 9.85795 46.0125 10.6297 46.5618 11.6335C47.111 12.6278 47.3857 13.9205 47.3857 15.5114V30H43.2379V27.017H43.0675C42.7929 27.5663 42.3809 28.1061 41.8317 28.6364C41.2824 29.1667 40.5769 29.607 39.7152 29.9574C38.8535 30.3078 37.8213 30.483 36.6186 30.483ZM37.5419 27.0739C38.7161 27.0739 39.7199 26.8419 40.5533 26.3778C41.3961 25.9138 42.0353 25.3078 42.4709 24.5597C42.916 23.8021 43.1385 22.9924 43.1385 22.1307V19.3182C42.987 19.4697 42.6934 19.6117 42.2578 19.7443C41.8317 19.8674 41.344 19.9763 40.7947 20.071C40.2455 20.1562 39.7105 20.2367 39.1896 20.3125C38.6688 20.3788 38.2332 20.4356 37.8828 20.483C37.0589 20.5871 36.3061 20.7623 35.6243 21.0085C34.9519 21.2547 34.4122 21.6098 34.005 22.0739C33.6072 22.5284 33.4084 23.1345 33.4084 23.892C33.4084 24.9432 33.7966 25.7386 34.5732 26.2784C35.3497 26.8087 36.3393 27.0739 37.5419 27.0739ZM56.3949 8.18182L61.2102 16.6761L66.0682 8.18182H70.7131L63.9091 19.0909L70.7699 30H66.125L61.2102 21.8466L56.3097 30H51.6506L58.4403 19.0909L51.7358 8.18182H56.3949ZM81.3842 30.483C80.0017 30.483 78.7517 30.2273 77.6342 29.7159C76.5168 29.1951 75.6314 28.4422 74.978 27.4574C74.334 26.4725 74.0121 25.2652 74.0121 23.8352C74.0121 22.6042 74.2488 21.5909 74.7223 20.7955C75.1958 20 75.835 19.3703 76.6399 18.9062C77.4448 18.4422 78.3445 18.0919 79.3388 17.8551C80.3331 17.6184 81.3464 17.4384 82.3786 17.3153C83.6854 17.1638 84.746 17.0407 85.5604 16.946C86.3748 16.8419 86.9666 16.6761 87.3359 16.4489C87.7053 16.2216 87.8899 15.8523 87.8899 15.3409V15.2415C87.8899 14.0009 87.5395 13.0398 86.8388 12.358C86.1475 11.6761 85.1153 11.3352 83.7422 11.3352C82.3123 11.3352 81.1854 11.6525 80.3615 12.2869C79.5471 12.9119 78.9837 13.608 78.6712 14.375L74.6797 13.4659C75.1532 12.1402 75.8445 11.0701 76.7536 10.2557C77.6721 9.43182 78.728 8.83523 79.9212 8.46591C81.1143 8.08712 82.3691 7.89773 83.6854 7.89773C84.5566 7.89773 85.4799 8.00189 86.4553 8.21023C87.4401 8.40909 88.3587 8.77841 89.2109 9.31818C90.0727 9.85795 90.7782 10.6297 91.3274 11.6335C91.8767 12.6278 92.1513 13.9205 92.1513 15.5114V30H88.0036V27.017H87.8331C87.5585 27.5663 87.1465 28.1061 86.5973 28.6364C86.0481 29.1667 85.3426 29.607 84.4808 29.9574C83.6191 30.3078 82.5869 30.483 81.3842 30.483ZM82.3075 27.0739C83.4818 27.0739 84.4856 26.8419 85.3189 26.3778C86.1617 25.9138 86.8009 25.3078 87.2365 24.5597C87.6816 23.8021 87.9041 22.9924 87.9041 22.1307V19.3182C87.7526 19.4697 87.459 19.6117 87.0234 19.7443C86.5973 19.8674 86.1096 19.9763 85.5604 20.071C85.0111 20.1562 84.4761 20.2367 83.9553 20.3125C83.4344 20.3788 82.9988 20.4356 82.6484 20.483C81.8246 20.5871 81.0717 20.7623 80.3899 21.0085C79.7176 21.2547 79.1778 21.6098 78.7706 22.0739C78.3729 22.5284 78.174 23.1345 78.174 23.892C78.174 24.9432 78.5623 25.7386 79.3388 26.2784C80.1153 26.8087 81.1049 27.0739 82.3075 27.0739ZM97.8082 30V8.18182H101.885V11.733H102.155C102.609 10.5303 103.353 9.5928 104.385 8.92045C105.417 8.23864 106.653 7.89773 108.092 7.89773C109.551 7.89773 110.772 8.23864 111.757 8.92045C112.751 9.60227 113.485 10.5398 113.959 11.733H114.186C114.707 10.5682 115.536 9.64015 116.672 8.94886C117.808 8.24811 119.162 7.89773 120.734 7.89773C122.714 7.89773 124.328 8.51799 125.578 9.75852C126.838 10.9991 127.467 12.8693 127.467 15.3693V30H123.22V15.767C123.22 14.2898 122.818 13.2197 122.013 12.5568C121.208 11.8939 120.247 11.5625 119.129 11.5625C117.747 11.5625 116.672 11.9886 115.905 12.8409C115.138 13.6837 114.754 14.768 114.754 16.0938V30H110.521V15.4972C110.521 14.3134 110.152 13.3617 109.413 12.642C108.675 11.9223 107.714 11.5625 106.53 11.5625C105.725 11.5625 104.982 11.7756 104.3 12.2017C103.627 12.6184 103.083 13.2008 102.666 13.9489C102.259 14.697 102.055 15.5634 102.055 16.5483V30H97.8082Z" fill="black"/>
<path d="M132.066 4.6875V0.90909H154.58V4.6875H145.504V30H141.129V4.6875H132.066ZM165.241 30.4403C163.195 30.4403 161.41 29.9716 159.886 29.0341C158.361 28.0966 157.177 26.785 156.335 25.0994C155.492 23.4138 155.07 21.4441 155.07 19.1903C155.07 16.9271 155.492 14.9479 156.335 13.2528C157.177 11.5578 158.361 10.2415 159.886 9.30398C161.41 8.36648 163.195 7.89773 165.241 7.89773C167.286 7.89773 169.071 8.36648 170.596 9.30398C172.121 10.2415 173.304 11.5578 174.147 13.2528C174.99 14.9479 175.411 16.9271 175.411 19.1903C175.411 21.4441 174.99 23.4138 174.147 25.0994C173.304 26.785 172.121 28.0966 170.596 29.0341C169.071 29.9716 167.286 30.4403 165.241 30.4403ZM165.255 26.875C166.581 26.875 167.679 26.5246 168.55 25.8239C169.422 25.1231 170.066 24.1903 170.482 23.0256C170.908 21.8608 171.121 20.5777 171.121 19.1761C171.121 17.7841 170.908 16.5057 170.482 15.3409C170.066 14.1667 169.422 13.2244 168.55 12.5142C167.679 11.804 166.581 11.4489 165.255 11.4489C163.92 11.4489 162.812 11.804 161.931 12.5142C161.06 13.2244 160.411 14.1667 159.985 15.3409C159.568 16.5057 159.36 17.7841 159.36 19.1761C159.36 20.5777 159.568 21.8608 159.985 23.0256C160.411 24.1903 161.06 25.1231 161.931 25.8239C162.812 26.5246 163.92 26.875 165.255 26.875ZM193.973 20.9517V8.18182H198.234V30H194.058V26.2216H193.831C193.329 27.3864 192.524 28.357 191.416 29.1335C190.318 29.9006 188.949 30.2841 187.311 30.2841C185.91 30.2841 184.669 29.9763 183.589 29.3608C182.519 28.7358 181.677 27.8125 181.061 26.5909C180.455 25.3693 180.152 23.8589 180.152 22.0597V8.18182H184.399V21.5483C184.399 23.035 184.811 24.2187 185.635 25.0994C186.459 25.9801 187.529 26.4205 188.845 26.4205C189.641 26.4205 190.431 26.2216 191.217 25.8239C192.013 25.4261 192.671 24.8248 193.192 24.0199C193.722 23.215 193.982 22.1922 193.973 20.9517ZM203.941 30V8.18182H208.046V11.6477H208.273C208.671 10.4735 209.372 9.55019 210.376 8.87784C211.389 8.19602 212.535 7.85511 213.813 7.85511C214.078 7.85511 214.391 7.86458 214.751 7.88352C215.12 7.90246 215.409 7.92614 215.617 7.95455V12.017C215.447 11.9697 215.144 11.9176 214.708 11.8608C214.272 11.7945 213.837 11.7614 213.401 11.7614C212.397 11.7614 211.503 11.9744 210.717 12.4006C209.94 12.8172 209.325 13.3996 208.87 14.1477C208.415 14.8864 208.188 15.7292 208.188 16.6761V30H203.941Z" fill="#33C9FF"/>
</svg>
